<?xml version="1.0" standalone="no"?>
<!DOCTYPE svg PUBLIC "-//W3C//DTD SVG 20010904//EN"
 "http://www.w3.org/TR/2001/REC-SVG-20010904/DTD/svg10.dtd">
<svg version="1.0" xmlns="http://www.w3.org/2000/svg"
 width="512.000000pt" height="512.000000pt" viewBox="0 0 512.000000 512.000000"
 preserveAspectRatio="xMidYMid meet">

<g transform="translate(0.000000,512.000000) scale(0.100000,-0.100000)"
fill="#000000" stroke="none">
<path d="M778 4788 c-173 -249 -221 -329 -269 -451 -30 -74 -75 -235 -84 -295
-4 -29 -10 -54 -15 -57 -4 -2 -29 47 -56 110 -27 63 -51 115 -54 115 -6 0 -91
-426 -116 -575 -20 -124 -28 -391 -16 -500 6 -49 9 -92 7 -94 -2 -2 -41 36
-86 83 -45 48 -84 85 -86 83 -8 -8 27 -504 42 -597 100 -615 474 -1115 1074
-1433 l102 -54 -78 -21 c-103 -28 -224 -42 -353 -42 -138 1 -248 12 -535 55
-130 20 -239 35 -241 33 -5 -5 300 -338 363 -396 336 -310 752 -490 1232 -532
323 -28 789 39 1151 165 437 153 799 380 1115 699 265 266 458 563 589 904
104 270 165 589 166 863 l0 127 245 198 244 199 -152 48 c-84 27 -203 65 -266
85 l-114 37 -37 92 c-102 255 -284 459 -528 591 -454 245 -1001 164 -1367
-203 -146 -145 -241 -306 -298 -506 -31 -104 -49 -279 -41 -380 l7 -76 -61 8
c-470 64 -869 364 -1111 834 -108 209 -173 404 -251 750 -27 119 -51 219 -53
222 -3 2 -34 -38 -69 -89z m106 -1016 c75 -145 190 -317 289 -431 359 -411
916 -633 1432 -570 50 6 91 12 93 14 2 2 -8 39 -22 83 -79 249 -83 422 -16
619 90 264 302 467 575 549 79 24 108 27 230 28 114 0 155 -3 220 -21 159 -43
284 -115 392 -225 121 -122 189 -242 233 -412 l26 -98 73 -23 c40 -13 75 -26
78 -28 2 -3 -32 -35 -76 -72 l-81 -67 0 -193 c0 -116 -6 -241 -15 -312 -126
-970 -859 -1753 -1885 -2013 -267 -68 -566 -99 -788 -81 -254 20 -441 70 -652
174 l-125 61 45 7 c25 4 90 12 145 19 216 26 430 113 554 225 38 34 187 233
179 239 -1 2 -57 18 -123 36 -142 38 -229 72 -366 140 -305 154 -568 382 -732
636 -76 117 -162 309 -182 403 -6 30 -5 33 10 27 26 -9 346 -57 362 -54 8 2
-18 50 -73 132 -48 72 -102 162 -120 201 -64 132 -109 372 -102 537 l3 77 130
-94 c72 -51 132 -91 134 -90 1 2 -5 95 -14 207 -19 216 -16 511 4 598 6 25 14
56 17 70 5 21 13 6 48 -80 23 -58 69 -156 100 -218z"/>
</g>
</svg>
